<svg width="941" height="739" xmlns="http://www.w3.org/2000/svg" xmlns:xlink="http://www.w3.org/1999/xlink" xml:space="preserve" overflow="hidden"><defs><filter id="fx0" x="-10%" y="-10%" width="120%" height="120%" filterUnits="userSpaceOnUse" primitiveUnits="userSpaceOnUse"><feComponentTransfer color-interpolation-filters="sRGB"><feFuncR type="discrete" tableValues="0.847059 0.847059"/><feFuncG type="discrete" tableValues="0.431373 0.431373"/><feFuncB type="discrete" tableValues="0.8 0.8"/><feFuncA type="linear" slope="1" intercept="0"/></feComponentTransfer><feGaussianBlur stdDeviation="1.20317 1.20317"/></filter><clipPath id="clip1"><rect x="1" y="1" width="885" height="247"/></clipPath></defs><g transform="translate(-1538 -1172)"><g><g><g><path d="M2289.03 1506.59C2314.85 1485.8 2318.93 1448.01 2298.14 1422.18 2287.39 1408.82 2271.43 1400.7 2254.3 1399.87 2284.68 1387.13 2301.6 1396.45 2301.84 1396.6L2305.85 1390.02 2309.94 1383.5C2296.76 1376.95 2281.62 1375.5 2267.44 1379.42 2255.92 1364.1 2240.64 1352.02 2223.07 1344.36 2230.37 1332.81 2234.51 1319.55 2235.08 1305.89 2238.01 1275.6 2211.27 1250.76 2208.21 1248.03L2199.25 1240.02 2189.31 1246.77C2186.45 1248.81 2183.82 1251.14 2181.44 1253.72 2153.67 1232.24 2111.37 1231.07 2102.59 1231.07L2102.13 1231.07 2090.37 1231.2 2087.4 1242.58C2084.46 1255.43 2083.93 1268.72 2085.86 1281.76 2057.28 1285.97 2030.94 1299.65 2011.08 1320.62L2006.5 1325.75 2007.26 1332.58C2007.56 1335.06 2008.02 1337.53 2008.64 1339.96 1978.69 1353.35 1965.18 1388.43 1978.42 1418.45 1959.51 1420.57 1942.76 1431.64 1933.39 1448.2 1927.15 1442.44 1920.63 1436.73 1913.81 1430.79 1908.17 1425.9 1902.32 1420.81 1896.42 1415.49 1883.06 1400.83 1871.72 1384.44 1862.72 1366.76 1843.71 1333.65 1824.05 1299.4 1791.69 1309.44 1791.4 1309.53 1791.05 1309.67 1790.75 1309.77 1794.71 1295.4 1803.7 1282.92 1816.08 1274.61 1817.18 1273.77 1818.16 1273.03 1818.97 1272.37L1809.27 1260.42C1808.57 1260.98 1807.73 1261.62 1806.78 1262.34 1797.66 1268.78 1789.9 1276.95 1783.91 1286.37 1780.91 1278.73 1776.06 1271.95 1769.8 1266.64 1759.38 1259.06 1746.7 1255.21 1733.82 1255.72 1730.37 1255.69 1726.92 1255.92 1723.5 1256.4 1723.5 1256.4 1724.91 1284.67 1743.28 1299.5 1752.33 1306.39 1763.34 1310.2 1774.71 1310.36 1774.23 1312.79 1773.82 1315.3 1773.55 1317.95 1768.77 1317.45 1763.94 1317.96 1759.37 1319.45 1722.72 1330.78 1727.26 1370.16 1731.65 1408.23 1733.98 1428.48 1736.39 1449.42 1732.88 1465.91L1729.68 1479.02C1727.88 1486.35 1726.1 1493.57 1724.44 1500.68 1683.21 1512.51 1658.8 1527.18 1658.8 1543.23L1658.8 1548.62C1658.8 1653.8 1708.59 1747.5 1797.36 1802.65L1797.36 1822.14C1797.33 1837.53 1808.68 1850.57 1823.92 1852.65 1881.48 1860.14 1939.46 1864 1997.5 1864.23 2055.52 1864 2113.47 1860.14 2171 1852.65 2186.25 1850.57 2197.6 1837.53 2197.57 1822.14L2197.57 1802.65C2286.34 1747.49 2336.13 1653.8 2336.13 1548.62L2336.13 1543.23C2336.13 1529.76 2318.94 1517.25 2289.03 1506.59ZM1752.95 1287.51C1748.14 1283.25 1744.54 1277.8 1742.5 1271.71 1748.9 1272.38 1754.99 1274.77 1760.14 1278.62 1765.01 1282.89 1768.64 1288.39 1770.66 1294.54 1764.22 1293.89 1758.09 1291.45 1752.95 1287.51ZM2007.86 1587.06C2000.81 1580.11 1996.34 1570.97 1995.2 1561.14 1995.16 1560.82 1995.14 1560.5 1995.09 1560.19 1992.76 1538.41 2006.63 1518.18 2027.78 1512.5 2038.41 1524.17 2053.2 1531.2 2068.96 1532.07 2063.54 1549.72 2066.53 1568.89 2077.1 1584.05 2077.3 1584.33 2077.53 1584.59 2077.74 1584.86 2055.04 1586.15 2031.65 1586.89 2007.86 1587.06ZM2196.6 1434.81C2188.98 1451.47 2189.36 1470.69 2197.63 1487.04 2192.83 1488.77 2188.27 1491.11 2184.07 1494.01 2177.8 1498.39 2172.43 1503.93 2168.26 1510.33 2166.99 1510.44 2165.72 1510.61 2164.45 1510.61 2139.72 1510.68 2119.62 1490.69 2119.55 1465.96 2119.48 1441.23 2139.47 1421.13 2164.2 1421.06 2176.42 1421.03 2188.13 1425.99 2196.6 1434.81ZM2129.98 1416.5C2119.2 1424 2111.19 1434.86 2107.21 1447.38 2082.55 1445.41 2064.17 1423.82 2066.14 1399.17 2068.12 1374.52 2089.7 1356.14 2114.35 1358.11 2139 1360.08 2157.39 1381.67 2155.41 1406.32 2155.41 1406.33 2155.41 1406.34 2155.41 1406.35 2146.26 1407.72 2137.56 1411.19 2129.98 1416.5ZM2104.37 1462.6C2103.8 1472.7 2105.82 1482.79 2110.24 1491.89 2103.72 1493.61 2097.55 1496.45 2092 1500.27 2085.74 1504.65 2080.37 1510.19 2076.19 1516.59 2074.92 1516.7 2073.65 1516.88 2072.39 1516.88 2047.66 1516.9 2027.59 1496.87 2027.57 1472.14 2027.56 1457.49 2034.71 1443.76 2046.72 1435.38 2049.97 1433.12 2053.5 1431.32 2057.23 1430.02 2058.48 1432.53 2059.91 1434.94 2061.49 1437.25 2071.46 1451.49 2087.09 1460.73 2104.37 1462.6ZM2097.3 1583.61C2078.52 1567.56 2076.32 1539.32 2092.37 1520.55 2099.24 1512.51 2108.74 1507.16 2119.18 1505.47 2129.84 1517.58 2144.92 1524.91 2161.03 1525.81 2155.79 1542.93 2158.47 1561.51 2168.34 1576.46 2145.92 1579.44 2122.11 1581.84 2097.3 1583.61ZM2185.95 1573.96C2184.43 1572.41 2183.04 1570.74 2181.79 1568.98 2167.61 1548.84 2172.44 1521.03 2192.58 1506.85 2196.85 1503.84 2201.62 1501.61 2206.67 1500.25 2218.08 1512.83 2234.28 1520.02 2251.27 1520.02 2253 1520.02 2254.7 1519.78 2256.41 1519.63 2263.75 1531.39 2265.21 1545.89 2260.36 1558.87 2235.85 1565.26 2211.01 1570.3 2185.95 1573.96ZM2272.68 1517.45C2298.41 1525.44 2311.26 1533.08 2316.89 1538.06 2304.29 1544.5 2291.13 1549.8 2277.57 1553.88 2279.79 1541.52 2278.08 1528.78 2272.68 1517.45ZM2287.95 1434.23C2302.09 1454.51 2297.12 1482.41 2276.84 1496.56 2256.56 1510.71 2228.66 1505.74 2214.51 1485.46 2200.37 1465.18 2205.34 1437.27 2225.62 1423.13 2233.12 1417.9 2242.04 1415.09 2251.19 1415.08 2265.84 1415.06 2279.56 1422.22 2287.95 1434.23ZM2251.66 1384.18C2242.76 1387.73 2234.23 1392.17 2226.21 1397.42 2227.92 1385.5 2227.08 1373.35 2223.76 1361.77 2234.38 1367.42 2243.85 1375.02 2251.66 1384.18ZM2022.56 1330.88C2022.56 1330.88 2053.23 1296.54 2096.93 1296.54 2099.55 1296.54 2102.22 1296.66 2104.93 1296.93 2105.43 1296.97 2105.92 1297.07 2106.41 1297.12 2099.78 1281.08 2098.34 1263.37 2102.29 1246.46L2102.58 1246.46C2106.68 1246.46 2153.66 1246.98 2177.12 1270.38 2179.39 1272.65 2181.43 1275.14 2183.23 1277.8 2186.64 1270.64 2191.68 1264.37 2197.94 1259.51 2197.94 1259.51 2222.01 1281 2219.75 1304.41 2219.43 1315.85 2215.96 1326.98 2209.72 1336.57 2209.17 1337.28 2208.68 1338.02 2208.25 1338.81 2191.18 1333.92 2173.35 1332.22 2155.67 1333.81 2151.43 1334.14 2148.27 1337.85 2148.61 1342.09 2148.95 1346.33 2152.66 1349.5 2156.9 1349.16 2173.25 1347.64 2189.74 1349.32 2205.45 1354.1 2205.31 1357.15 2206.03 1360.19 2207.53 1362.85 2211.75 1373.47 2212.9 1385.05 2210.86 1396.28 2209.76 1404.48 2206.3 1412.17 2200.91 1418.44 2192.2 1411.6 2181.77 1407.31 2170.77 1406.05 2171.57 1392.66 2167.84 1379.39 2160.17 1368.39 2148.91 1352.26 2130.47 1342.65 2110.79 1342.65L2110.79 1342.65C2098.77 1342.65 2087.02 1346.29 2077.08 1353.07 2063.35 1338.47 2043.15 1331.8 2023.42 1335.35 2023.05 1333.88 2022.77 1332.39 2022.56 1330.88ZM2008.03 1357.87C2025.94 1345.34 2050.29 1347.63 2065.55 1363.27 2053.02 1377.58 2047.99 1396.97 2052.01 1415.57 2040.12 1419.73 2029.89 1427.59 2022.81 1438.01 1998.83 1432.04 1984.22 1407.76 1990.19 1383.78 1992.81 1373.27 1999.14 1364.06 2008.03 1357.87ZM1959.91 1441.37C1967.41 1436.12 1976.34 1433.31 1985.49 1433.31 1986.26 1433.31 1987.01 1433.4 1987.78 1433.45 1995.15 1442.13 2004.84 1448.53 2015.72 1451.92 2014.58 1455.05 2013.71 1458.28 2013.11 1461.56 2010.81 1474.4 2012.78 1487.65 2018.72 1499.26 2013.93 1501 2009.38 1503.35 2005.19 1506.26 1997.39 1511.69 1991.01 1518.9 1986.55 1527.28 1982.72 1516.77 1978.12 1506.54 1972.8 1496.7 1965.31 1483.03 1955.93 1470.48 1944.92 1459.44 1948.2 1452.18 1953.38 1445.94 1959.91 1441.37ZM1744.63 1482.7 1747.9 1469.32C1751.98 1450.15 1749.42 1427.94 1746.95 1406.46 1742.3 1366.18 1741.13 1341.2 1763.92 1334.15 1767.4 1332.77 1771.26 1332.67 1774.8 1333.89 1779.27 1335.79 1784.47 1334.19 1787.1 1330.1 1789.34 1327.09 1792.58 1324.98 1796.24 1324.14 1815.44 1318.25 1829.13 1339.17 1849.37 1374.41 1859.09 1393.48 1871.4 1411.11 1885.96 1426.8 1892.08 1432.31 1898 1437.46 1903.7 1442.42 1927.23 1462.87 1945.81 1479.01 1959.25 1503.99 1969.25 1521.65 1976.17 1540.89 1979.72 1560.87 1979.83 1562.18 1979.99 1563.48 1980.19 1564.76 1981.14 1572.14 1981.49 1579.58 1981.23 1587.01 1883.29 1585.91 1792.47 1574.99 1730.52 1557.75 1733.03 1532.37 1737.75 1507.25 1744.63 1482.7ZM1715.35 1553.22C1702.5 1549.25 1690.02 1544.17 1678.06 1538.03 1690.84 1528.66 1705.3 1521.83 1720.66 1517.92 1718.16 1529.57 1716.39 1541.35 1715.35 1553.22ZM2168.96 1837.39C2112.1 1844.78 2054.84 1848.6 1997.5 1848.84 1940.14 1848.6 1882.85 1844.78 1825.97 1837.39 1818.37 1836.31 1812.74 1829.81 1812.75 1822.14L1812.75 1806.36C1874.15 1813.87 1935.93 1817.77 1997.78 1818.04 2059.42 1818.05 2121 1814.24 2182.17 1806.64L2182.17 1822.14C2182.19 1829.81 2176.55 1836.31 2168.96 1837.39ZM2189.44 1789.57 2188.19 1790.35C2125.05 1798.57 2061.45 1802.67 1997.78 1802.65 1933.73 1802.38 1869.76 1798.17 1806.23 1790.04L1805.48 1789.57C1723.38 1738.56 1675.84 1652.68 1674.34 1553.45 1734.13 1583.45 1858.22 1602.5 1997.5 1602.5 2136.72 1602.5 2260.76 1583.47 2320.59 1553.49 2319.07 1652.7 2271.53 1738.57 2189.44 1789.57Z" stroke="#D9F2D0" stroke-width="7.69792" fill="#B4E5A2"/></g></g></g><g clip-path="url(#clip1)" filter="url(#fx0)" transform="translate(1592 1549)"><g><path d="M851.304 109.115C849.155 109.115 845.451 110.892 840.192 114.447 834.934 118.001 830.03 122.093 825.481 126.723 825.365 127.549 826.366 128.252 828.484 128.831 830.602 129.409 832.984 129.699 835.63 129.699 838.771 129.699 841.033 129.368 842.415 128.707 844.35 127.88 847.587 125.772 852.127 122.383 856.668 118.993 859.245 116.637 859.86 115.315 860.423 113.661 860.185 112.297 859.145 111.223 858.105 110.148 856.401 109.445 854.032 109.115ZM480.488 108.394C482.022 108.441 483.558 109.301 485.096 110.975 487.148 113.207 488.606 115.728 489.471 118.539 490.125 119.531 490.171 120.853 489.611 122.507 488.766 124.987 486.511 128.459 482.845 132.923 481.401 134.741 479.857 136.973 478.214 139.619 476.571 142.264 475.108 144.744 473.824 147.059 470.324 151.523 467.349 155.656 464.9 159.459 463.673 161.608 462.78 163.261 462.222 164.419 458.985 170.536 456.562 174.504 454.953 176.323 452.555 180.456 450.096 183.556 447.575 185.623 445.053 187.689 442.635 188.723 440.321 188.723 437.51 188.723 435.507 187.565 434.311 185.251 432.781 182.936 433.028 178.803 435.051 172.851 436.12 169.709 437.349 167.312 438.736 165.659 439.017 164.832 439.52 163.84 440.243 162.683 440.967 161.525 441.385 160.781 441.499 160.451 441.669 159.459 443.258 156.731 446.265 152.267 449.765 147.803 454.618 140.941 460.823 131.683 467.029 122.424 471.384 115.811 473.89 111.843 474.171 111.016 474.741 110.313 475.599 109.735 476.456 109.156 477.575 108.784 478.954 108.619 479.465 108.453 479.976 108.379 480.488 108.394ZM227.936 96.7148C230.581 96.7148 232.893 97.2108 234.87 98.2028 236.848 99.1948 237.638 100.517 237.24 102.171 237.511 102.832 237.338 104.072 236.721 105.891 234.923 111.181 230.302 118.208 222.86 126.971L219.275 131.683C213.884 138.792 209.853 144.331 207.182 148.299 204.51 152.267 202.725 155.573 201.826 158.219 200.927 160.864 201.329 162.6 203.031 163.427 203.69 163.923 204.598 164.171 205.756 164.171 209.062 164.171 213.942 161.608 220.395 156.483 226.848 151.357 234.606 142.76 243.669 130.691 247.892 125.069 251.263 119.283 253.782 113.331 254.072 111.512 255.242 109.528 257.295 107.379 259.347 105.229 261.673 103.493 264.272 102.171 265.272 101.179 266.448 100.393 267.802 99.8148 269.156 99.2361 269.885 99.2775 269.991 99.9388L274.045 99.6908C274.595 99.5255 275.126 100.269 275.639 101.923 276.152 103.576 276.601 104.568 276.986 104.899 278.19 106.221 278.117 108.867 276.769 112.835 274.914 118.291 270.374 125.813 263.148 135.403 257.759 142.016 253.923 147.1 251.639 150.655 249.356 154.209 247.569 157.64 246.28 160.947 245.102 164.419 244.479 167.105 244.411 169.007 244.342 170.908 245.128 172.851 246.768 174.835 248.796 176.653 248.41 180.952 245.61 187.731 244.887 188.888 243.669 189.797 241.956 190.459 240.243 191.12 238.312 191.451 236.163 191.451 232.525 191.451 229.748 190.624 227.831 188.971 226.847 187.483 226.308 185.54 226.214 183.143 226.119 180.745 226.254 177.067 226.619 172.107 226.624 171.115 226.949 169.668 227.595 167.767 228.241 165.865 228.705 164.501 228.986 163.675 227.818 165.163 226.444 166.775 224.863 168.511 223.282 170.247 221.883 171.445 220.667 172.107 215.57 175.909 210.811 178.72 206.391 180.539 199.977 183.845 194.868 185.499 191.065 185.499 186.436 185.499 183.199 183.349 181.355 179.051 177.524 174.752 176.619 169.627 178.642 163.675 178.924 162.848 179.623 161.277 180.739 158.963 183.149 152.845 186.012 146.976 189.327 141.355 192.643 135.733 197.774 128.541 204.721 119.779L217.218 104.899 223.798 97.2108C224.738 96.8801 226.117 96.7148 227.936 96.7148ZM859.193 91.0108C865.972 91.0108 871.048 92.2508 874.42 94.7308 877.793 97.2108 879.814 100.021 880.483 103.163 881.152 106.304 881.092 109.032 880.304 111.347L879.886 112.587 879.63 113.331C878.956 115.315 876.562 118.952 872.45 124.243 868.337 129.533 862.973 134.493 856.357 139.123 849.741 143.752 842.381 146.315 834.277 146.811 830.309 146.811 826.592 146.439 823.125 145.695 819.658 144.951 817.429 144.579 816.437 144.579 813.957 144.579 812.077 145.488 810.797 147.307 809.517 149.125 808.147 152.184 806.687 156.483 805.61 161.112 805.795 164.336 807.243 166.155 808.691 167.973 811.399 168.883 815.367 168.883 817.351 168.883 819.863 168.304 822.904 167.147 825.999 165.824 829.842 163.757 834.432 160.947 836.979 159.293 838.944 158.136 840.326 157.475 841.708 156.813 843.226 156.483 844.879 156.483 846.367 156.483 847.766 157.475 849.076 159.459 850.386 161.443 850.814 163.344 850.362 165.163 849.357 167.147 846.527 170.123 841.872 174.091 837.217 178.059 831.71 181.613 825.351 184.755 818.992 187.896 812.754 189.467 806.637 189.467 797.213 189.467 790.506 186.821 786.518 181.531 782.529 176.24 782.192 168.717 785.506 158.963 786.801 155.16 788.482 150.944 790.552 146.315 792.231 142.347 795.697 136.891 800.95 129.947 806.203 123.003 812.475 116.224 819.765 109.611 827.055 102.997 834.623 98.1201 842.469 94.9788 846.117 93.4908 849.113 92.4575 851.459 91.8788 853.805 91.3001 856.383 91.0108 859.193 91.0108ZM407.76 90.5148C411.067 90.5148 413.157 91.1761 414.03 92.4988 415.017 93.4908 415.116 95.1441 414.328 97.4588 413.037 101.261 408.365 107.957 400.312 117.547L396.061 122.755C394.173 124.904 392.548 126.888 391.187 128.707 389.825 130.525 389.585 131.352 390.466 131.187 393.354 128.045 399.238 123.747 408.119 118.291 416.999 112.835 422.986 109.445 426.081 108.123 427.463 107.461 429.176 106.8 431.219 106.139 433.263 105.477 434.672 104.981 435.447 104.651 438.927 103.163 442.568 102.419 446.371 102.419 449.016 102.419 451.163 102.791 452.813 103.535 454.462 104.279 455.364 105.395 455.519 106.883 455.292 108.04 455.438 108.949 455.957 109.611 456.477 110.272 456.873 110.685 457.147 110.851 457.643 110.851 457.903 111.057 457.928 111.471 457.952 111.884 457.936 112.173 457.879 112.339 457.43 113.661 455.697 115.356 452.681 117.423 449.665 119.489 446.889 120.605 444.352 120.771 442.476 120.936 440.434 121.349 438.225 122.011 436.017 122.672 433.752 123.499 431.432 124.491L423.717 128.211C417.143 131.021 411.449 133.791 406.636 136.519 401.824 139.247 396.702 142.76 391.272 147.059 390.166 147.885 388.575 149.043 386.498 150.531 384.421 152.019 382.467 153.755 380.635 155.739 379.085 156.896 376.862 159.913 373.964 164.791 371.067 169.668 369.421 172.685 369.026 173.843 368.692 174.339 368.025 175.331 367.024 176.819 366.023 178.307 364.829 179.629 363.442 180.787 361.336 182.605 359.647 183.928 358.375 184.755 357.103 185.581 355.888 185.995 354.731 185.995 353.077 185.995 351.54 184.92 350.12 182.771 348.425 180.952 347.197 179.216 346.436 177.563 345.676 175.909 346.048 173.595 347.554 170.619 349.962 164.997 353.421 158.467 357.931 151.027L360.857 146.067C362.872 141.603 368.469 132.799 377.647 119.655 386.826 106.511 393.773 97.6241 398.487 92.9948 400.701 91.3415 403.792 90.5148 407.76 90.5148ZM661.453 90.2668C669.059 90.2668 670.109 98.3681 664.604 114.571 663.534 117.712 662.636 120.109 661.911 121.763 658.883 129.699 656.807 135.32 655.683 138.627 651.356 151.357 650.283 159.624 652.463 163.427 655.132 159.955 657.214 157.475 658.71 155.987 662.655 151.192 665.017 148.133 665.797 146.811 666.521 145.653 668.076 143.752 670.463 141.107L675.965 134.411C676.632 133.419 678.787 130.236 682.433 124.863 686.078 119.489 689.371 115.149 692.314 111.843 693.425 110.52 695.077 108.577 697.27 106.015 699.463 103.452 701.17 101.592 702.391 100.435 703.611 99.2775 704.773 98.5335 705.876 98.2028 707.592 97.0455 709.193 96.4668 710.681 96.4668 712.169 96.4668 713.572 96.9628 714.89 97.9548 716.251 100.269 717.161 102.212 717.62 103.783 718.078 105.353 717.942 107.213 717.211 109.363 716.033 112.835 713.306 116.968 709.031 121.763 706.416 125.565 703.762 129.12 701.067 132.427 698.373 135.733 696.443 137.883 695.278 138.875L685.106 152.019C680.774 157.475 675.553 163.84 669.444 171.115 661.833 180.373 656.359 187.235 653.021 191.699L648.026 196.907C635.265 210.133 625.753 219.392 619.491 224.683 614.73 227.989 609.265 231.42 603.098 234.975 596.93 238.529 592.274 240.555 589.13 241.051 585.764 241.712 582.18 242.043 578.377 242.043 571.599 242.043 565.957 240.885 561.453 238.571 556.949 236.256 554.846 233.445 555.143 230.139L555.658 227.163C556.614 224.352 558.475 222.161 561.24 220.591 564.005 219.02 566.711 218.235 569.356 218.235 571.01 218.235 572.109 218.648 572.654 219.475 572.928 219.64 573.941 220.549 575.694 222.203 577.447 223.856 580.307 224.683 584.275 224.683 591.715 224.683 600.648 219.805 611.074 210.051 621.782 198.973 630.079 190.128 635.964 183.515 633.331 181.531 631.245 178.183 629.705 173.471 628.166 168.759 627.87 165.493 628.818 163.675L629.744 160.947C628.422 160.947 628.314 158.467 629.421 153.507 630.528 148.547 632.317 142.429 634.789 135.155 637.486 127.219 639.535 121.68 640.935 118.539 642.496 115.893 643.977 112.628 645.38 108.743 646.783 104.857 647.68 102.336 648.073 101.179 648.695 98.8641 649.839 96.8388 651.502 95.1028 653.166 93.3668 654.606 92.1681 655.823 91.5068 658.254 90.6801 660.131 90.2668 661.453 90.2668ZM515.689 53.0668C517.839 53.0668 519.942 53.8108 521.998 55.2988 524.054 56.7868 525.407 58.5228 526.055 60.5068 526.313 63.1521 526.105 65.4668 525.431 67.4508 524.083 71.4188 520.692 75.8001 515.259 80.5948 512.878 82.7441 510.332 84.3975 507.624 85.5548 504.915 86.7121 502.403 87.2908 500.089 87.2908 497.774 87.2908 496.042 86.7948 494.892 85.8028 493.632 84.6455 492.814 83.1575 492.439 81.3388 492.065 79.5201 492.076 77.7841 492.472 76.1308 492.869 74.4775 493.372 73.4855 493.982 73.1548 495.366 71.9975 496.892 70.4268 498.558 68.4428 500.224 66.4588 501.446 65.0535 502.224 64.2268 504.557 61.2508 506.361 59.1015 507.637 57.7788 509.582 55.4642 511.079 54.2242 512.128 54.0588 513.676 53.3975 514.863 53.0668 515.689 53.0668ZM795.394 50.5868C798.37 50.5868 800.487 51.4135 801.745 53.0668 802.445 55.3815 802.599 57.1175 802.207 58.2748 801.757 59.5975 800.505 61.3335 798.452 63.4828 796.785 65.4668 794.233 68.1121 790.795 71.4188 787.801 74.3948 785.498 76.7921 783.886 78.6108 781.504 80.7601 780.115 82.4135 779.72 83.5708 779.327 84.7281 780.206 85.3068 782.355 85.3068 784.67 85.3068 788.724 84.8108 794.519 83.8188 795.399 83.6535 796.584 83.5708 798.072 83.5708 802.04 83.5708 804.457 84.7281 805.324 87.0428 806.191 89.3575 806.035 92.2508 804.857 95.7228 804.069 98.0375 802.806 99.4428 801.067 99.9388 799.329 100.435 795.731 100.683 790.275 100.683 784.703 101.509 779.106 101.923 773.485 101.923 772.493 101.923 771.363 101.964 770.094 102.047 768.826 102.129 767.475 102.336 766.041 102.667 764.605 102.997 763.485 103.493 762.682 104.155 761.878 104.816 760.893 105.891 759.725 107.379 759.061 107.875 757.258 109.776 754.315 113.083 750.371 117.877 747.9 120.771 746.903 121.763 738.334 134.328 730.616 147.307 723.749 160.699 723.248 161.691 722.745 162.931 722.238 164.419 721.507 166.568 721.69 168.097 722.786 169.007 723.883 169.916 726.498 170.371 730.631 170.371 735.261 170.371 739.838 169.792 744.364 168.635 750.056 166.485 754.394 164.667 757.381 163.179 759.148 162.352 760.778 161.567 762.271 160.823 763.764 160.079 764.815 159.541 765.425 159.211 766.536 157.888 767.596 158.053 768.604 159.707 769.613 161.36 770.166 163.261 770.261 165.411 769.248 168.387 767.757 171.073 765.785 173.471 763.814 175.868 760.065 178.389 754.536 181.035 748.122 184.341 741.851 186.739 735.723 188.227 729.596 189.715 724.052 190.459 719.092 190.459 716.281 190.459 713.802 190.211 711.656 189.715 709.181 189.219 706.922 187.111 704.878 183.391 702.835 179.671 701.849 176.488 701.922 173.843 702.035 173.512 701.997 173.14 701.807 172.727 701.617 172.313 701.467 172.024 701.356 171.859 700.865 171.363 701.462 168.635 703.146 163.675 704.495 159.707 706.106 155.573 707.98 151.275 709.854 146.976 711.572 143.504 713.132 140.859L722.064 127.715 728.907 117.795 740.489 103.411 731.499 100.683C730.396 100.517 729.641 99.9388 729.234 98.9468 728.828 97.9548 728.765 97.0455 729.047 96.2188 729.496 94.8961 730.845 92.9948 733.094 90.5148 735.343 88.0348 736.881 86.7948 737.707 86.7948 738.146 86.9601 739.441 87.0428 741.59 87.0428 746.55 87.0428 750.354 86.7948 753.002 86.2988 754.88 85.6375 756.487 84.3148 757.822 82.3308 759.266 80.5121 760.613 78.9828 761.862 77.7428 763.111 76.5028 764.401 75.1388 765.731 73.6508 766.566 72.6588 767.872 71.1295 769.649 69.0628 771.426 66.9961 773.591 64.6401 776.143 61.9948 776.642 61.4988 777.793 60.3002 779.596 58.3988 781.399 56.4975 783.352 54.8855 785.455 53.5628 786.729 52.7361 788.29 52.0335 790.14 51.4548 791.99 50.8761 793.741 50.5868 795.394 50.5868ZM362.394 50.5868C365.37 50.5868 367.487 51.4135 368.746 53.0668 369.446 55.3815 369.599 57.1175 369.207 58.2748 368.757 59.5975 367.505 61.3335 365.452 63.4828 363.785 65.4668 361.233 68.1121 357.795 71.4188 354.801 74.3948 352.498 76.7921 350.886 78.6108 348.504 80.7601 347.115 82.4135 346.72 83.5708 346.327 84.7281 347.206 85.3068 349.355 85.3068 351.67 85.3068 355.724 84.8108 361.519 83.8188 362.4 83.6535 363.584 83.5708 365.072 83.5708 369.04 83.5708 371.457 84.7281 372.324 87.0428 373.191 89.3575 373.035 92.2508 371.857 95.7228 371.069 98.0375 369.806 99.4428 368.067 99.9388 366.329 100.435 362.731 100.683 357.275 100.683 351.703 101.509 346.106 101.923 340.485 101.923 339.493 101.923 338.363 101.964 337.095 102.047 335.826 102.129 334.475 102.336 333.041 102.667 331.605 102.997 330.485 103.493 329.682 104.155 328.878 104.816 327.893 105.891 326.725 107.379 326.061 107.875 324.258 109.776 321.315 113.083 317.371 117.877 314.9 120.771 313.903 121.763 305.334 134.328 297.616 147.307 290.749 160.699 290.248 161.691 289.745 162.931 289.238 164.419 288.507 166.568 288.69 168.097 289.787 169.007 290.883 169.916 293.498 170.371 297.631 170.371 302.261 170.371 306.839 169.792 311.365 168.635 317.056 166.485 321.394 164.667 324.381 163.179 326.148 162.352 327.778 161.567 329.271 160.823 330.764 160.079 331.815 159.541 332.425 159.211 333.536 157.888 334.596 158.053 335.605 159.707 336.613 161.36 337.166 163.261 337.261 165.411 336.248 168.387 334.757 171.073 332.785 173.471 330.814 175.868 327.065 178.389 321.536 181.035 315.122 184.341 308.851 186.739 302.723 188.227 296.596 189.715 291.052 190.459 286.092 190.459 283.281 190.459 280.802 190.211 278.656 189.715 276.181 189.219 273.922 187.111 271.878 183.391 269.835 179.671 268.849 176.488 268.922 173.843 269.035 173.512 268.997 173.14 268.807 172.727 268.617 172.313 268.467 172.024 268.356 171.859 267.865 171.363 268.462 168.635 270.146 163.675 271.495 159.707 273.106 155.573 274.98 151.275 276.854 146.976 278.572 143.504 280.132 140.859L289.064 127.715 295.907 117.795 307.49 103.411 298.5 100.683C297.396 100.517 296.641 99.9388 296.235 98.9468 295.828 97.9548 295.765 97.0455 296.047 96.2188 296.496 94.8961 297.845 92.9948 300.094 90.5148 302.343 88.0348 303.881 86.7948 304.707 86.7948 305.146 86.9601 306.441 87.0428 308.59 87.0428 313.55 87.0428 317.354 86.7948 320.002 86.2988 321.88 85.6375 323.487 84.3148 324.822 82.3308 326.266 80.5121 327.613 78.9828 328.862 77.7428 330.111 76.5028 331.401 75.1388 332.731 73.6508 333.566 72.6588 334.872 71.1295 336.649 69.0628 338.426 66.9961 340.591 64.6401 343.143 61.9948 343.642 61.4988 344.793 60.3002 346.596 58.3988 348.399 56.4975 350.352 54.8855 352.455 53.5628 353.729 52.7361 355.29 52.0335 357.14 51.4548 358.99 50.8761 360.741 50.5868 362.394 50.5868ZM613.367 41.9068C610.226 41.9068 607.468 42.2375 605.094 42.8988 602.555 43.5602 600.593 44.3455 599.21 45.2548 597.827 46.1642 596.826 47.5282 596.209 49.3468 595.759 50.6695 594.854 52.1161 593.494 53.6868 592.134 55.2575 590.789 56.5388 589.458 57.5308 588.957 58.5228 588.166 59.5148 587.085 60.5068 586.004 61.4988 585.241 62.1601 584.797 62.4908 584.686 62.8215 582.812 65.0535 579.174 69.1868 575.537 73.3201 571.856 77.9495 568.13 83.0748 559.182 94.8135 554.285 101.923 553.44 104.403 555.207 104.072 558.754 103.369 564.079 102.295 569.405 101.22 573.282 100.269 575.71 99.4428 576.097 99.2775 577.314 98.7401 579.358 97.8308 581.403 96.9215 583.645 95.5575 586.083 93.7388 599.814 83.9841 610.066 75.2215 616.839 67.4508 623.277 60.6721 626.974 55.8775 627.929 53.0668 628.604 51.0828 628.34 49.1815 627.139 47.3628 625.232 43.7255 620.642 41.9068 613.367 41.9068ZM617.374 21.8188C618.841 21.8188 620.332 21.9015 621.846 22.0668 633.249 23.0588 641.37 26.4068 646.21 32.1108 651.05 37.8148 651.505 46.2055 647.576 57.2828 645.783 61.5815 641.391 67.4508 634.399 74.8908 627.407 82.3308 620.451 88.4481 613.53 93.2428 610.099 95.5575 606.253 97.9961 601.992 100.559 597.731 103.121 594.992 104.733 593.775 105.395L599.22 107.627C605.978 110.603 610.776 114.24 613.613 118.539 616.451 122.837 617.515 128.707 616.804 136.147 616.574 137.8 616.235 139.288 615.785 140.611 614.548 144.248 612.522 148.381 609.709 153.011 606.896 157.64 604.156 161.691 601.49 165.163 600.16 166.155 598.968 167.229 597.914 168.387 596.86 169.544 596.193 170.288 595.914 170.619 595.524 171.28 593.179 173.801 588.879 178.183 584.579 182.564 580.905 186.077 577.857 188.723 563.798 197.981 552.765 203.933 544.756 206.579 536.746 209.72 527.945 211.291 518.356 211.291 509.759 211.291 503.843 209.968 500.609 207.323 497.209 204.677 494.926 201.908 493.76 199.015 492.593 196.121 492.459 193.352 493.358 190.707 494.539 187.235 497.231 184.424 501.434 182.275 502.206 181.944 503.171 181.779 504.329 181.779 505.982 181.779 507.661 182.068 509.366 182.647 511.071 183.225 512.252 184.011 512.908 185.003 515.855 188.971 520.305 190.955 526.257 190.955 528.903 190.955 532.903 190.376 538.258 189.219 545.38 187.235 551.307 184.755 556.039 181.779 560.77 178.803 566.765 174.173 574.024 167.891 578.571 163.757 582.346 159.583 585.349 155.367 588.352 151.151 590.444 147.307 591.625 143.835 592.916 140.032 593.018 137.056 591.931 134.907 590.14 130.443 587.6 127.095 584.309 124.863 581.017 122.631 576.644 121.515 571.188 121.515 566.393 121.515 561.456 122.176 556.378 123.499L540.982 126.475C540.264 126.64 539.353 126.764 538.25 126.847 537.147 126.929 534.789 129.368 531.177 134.163 527.564 138.957 521.084 148.051 511.738 161.443 504.951 171.197 499.684 178.183 495.935 182.399 492.187 186.615 489.403 188.723 487.585 188.723 485.601 188.723 484.07 186.904 482.993 183.267 482.778 182.44 482.307 180.787 481.578 178.307 480.85 175.827 480.88 173.429 481.668 171.115 482.06 169.957 482.95 168.552 484.337 166.899 485.67 165.411 486.879 163.923 487.964 162.435 489.049 160.947 490.372 158.88 491.932 156.235 496.272 149.787 507.963 133.749 527.005 108.123 546.047 82.4961 560.681 63.1521 570.909 50.0908 578.243 40.6668 581.169 35.7068 579.686 35.2108 579.854 34.7148 579.858 33.9708 579.699 32.9788 579.54 31.9868 579.628 31.2428 579.961 30.7468 580.299 29.7548 583.74 28.2668 590.284 26.2828 596.827 24.2988 601.117 23.4722 603.153 23.8028L604.641 23.8028C606.79 23.8028 608.005 23.3895 608.287 22.5628 608.618 22.5628 610.203 22.3975 613.044 22.0668 614.464 21.9015 615.907 21.8188 617.374 21.8188ZM232.59 6.44281C235.236 6.44281 237.421 7.31081 239.145 9.04681 240.869 10.7828 241.586 12.8082 241.294 15.1228 240.612 18.5948 234 31.2428 221.458 53.0668 220.783 55.0508 217.603 61.0028 211.917 70.9228 208.518 76.5441 205.534 81.9175 202.966 87.0428 200.675 91.8375 198.485 95.9708 196.396 99.4428 194.307 102.915 192.959 104.568 192.352 104.403 175.685 133.501 157.959 160.12 139.176 184.259 134.727 190.045 130.219 194.551 125.652 197.775 121.085 200.999 116.9 202.611 113.097 202.611 108.468 202.611 105.067 200.213 102.894 195.419 100.125 188.971 98.7208 182.399 98.682 175.703 98.6433 169.007 100.015 159.376 102.797 146.811 106.057 128.459 110.862 109.941 117.212 91.2588L119.909 83.3228C124.009 71.7495 125.232 65.9628 123.579 65.9628 122.587 65.9628 120.924 67.4508 118.59 70.4268 116.256 73.4028 113.113 77.7841 109.16 83.5708 107.434 86.2161 100.4 95.9708 88.0568 112.835L80.1324 123.747C75.1336 129.699 70.8505 135.733 67.2829 141.851 57.6626 155.077 49.6639 166.816 43.287 177.067 36.91 187.317 33.3314 193.104 32.5513 194.427 31.4379 196.245 30.3935 197.981 29.4183 199.635 28.4431 201.288 27.4828 202.776 26.5373 204.099 24.034 207.571 22.1585 209.927 20.9108 211.167 19.663 212.407 18.3778 213.027 17.0551 213.027 15.4018 213.027 13.5328 212.2 11.448 210.547 6.94786 207.736 5.73757 203.272 7.81714 197.155 8.71615 194.509 10.4741 191.037 13.091 186.739 16.5475 180.952 20.4148 175.413 24.6928 170.123 27.0824 166.981 29.5843 163.509 32.1986 159.707 34.813 155.904 37.293 151.771 39.6386 147.307 45.5287 139.701 50.9769 132.303 55.9834 125.111 60.9899 117.919 64.1609 113.331 65.4965 111.347 66.0571 110.189 70.9202 103.907 80.0859 92.4988L87.336 83.5708C95.0705 72.4935 101.784 63.5655 107.476 56.7868 113.169 50.0081 119.898 42.7335 127.663 34.9628 131.771 30.6642 136.47 28.5148 141.76 28.5148 144.902 28.5148 147.459 29.2588 149.433 30.7468 151.407 32.2348 152.357 34.3015 152.285 36.9468 152.595 40.4188 152.419 44.2215 151.758 48.3548 151.097 52.4881 149.133 59.8455 145.868 70.4268 144.909 73.7335 143.363 78.5281 141.23 84.8108 136.84 98.6988 133.671 109.239 131.722 116.431 129.773 123.623 128.614 130.195 128.244 136.147 126.989 142.76 126.08 147.141 125.516 149.291 123.866 157.061 122.723 163.096 122.089 167.395 121.455 171.693 121.551 173.843 122.378 173.843 124.362 173.843 128.704 169.213 135.405 159.955 142.107 150.696 153.929 131.6 170.873 102.667 172.989 99.3601 175.776 94.5655 179.234 88.2828 182.691 82.0001 185.762 75.8828 188.446 69.9308 192.567 63.1521 196.745 56.0842 200.982 48.7268 205.219 41.3695 207.449 37.3602 207.674 36.6988 207.956 35.8721 208.278 35.0455 208.641 34.2188 209.004 33.3922 209.3 32.4001 209.53 31.2428 210.192 31.2428 211.259 30.1682 212.733 28.0188 214.207 25.8695 215.252 23.8855 215.87 22.0668 217.5 17.2722 219.866 13.7175 222.969 11.4028 225.911 8.09615 229.118 6.44281 232.59 6.44281Z" stroke="#FFFFFF" stroke-width="3" stroke-linejoin="round" stroke-miterlimit="10" fill="#A02B93" fill-rule="evenodd"/></g></g><path d="M2435.78 1650.59C2433.63 1650.59 2429.93 1652.37 2424.67 1655.92 2419.41 1659.48 2414.5 1663.57 2409.96 1668.2 2409.84 1669.02 2410.84 1669.73 2412.96 1670.31 2415.08 1670.88 2417.46 1671.17 2420.1 1671.17 2423.25 1671.17 2425.51 1670.84 2426.89 1670.18 2428.82 1669.35 2432.06 1667.25 2436.6 1663.86 2441.14 1660.47 2443.72 1658.11 2444.33 1656.79 2444.9 1655.14 2444.66 1653.77 2443.62 1652.7 2442.58 1651.62 2440.88 1650.92 2438.51 1650.59ZM2064.96 1649.87C2066.5 1649.92 2068.03 1650.78 2069.57 1652.45 2071.62 1654.68 2073.08 1657.2 2073.95 1660.01 2074.6 1661.01 2074.65 1662.33 2074.09 1663.98 2073.24 1666.46 2070.99 1669.93 2067.32 1674.4 2065.88 1676.22 2064.33 1678.45 2062.69 1681.09 2061.05 1683.74 2059.58 1686.22 2058.3 1688.53 2054.8 1693 2051.82 1697.13 2049.37 1700.93 2048.15 1703.08 2047.25 1704.74 2046.7 1705.89 2043.46 1712.01 2041.04 1715.98 2039.43 1717.8 2037.03 1721.93 2034.57 1725.03 2032.05 1727.1 2029.53 1729.16 2027.11 1730.2 2024.8 1730.2 2021.98 1730.2 2019.98 1729.04 2018.79 1726.73 2017.26 1724.41 2017.5 1720.28 2019.53 1714.33 2020.59 1711.18 2021.82 1708.79 2023.21 1707.13 2023.49 1706.31 2023.99 1705.31 2024.72 1704.16 2025.44 1703 2025.86 1702.26 2025.97 1701.93 2026.14 1700.93 2027.73 1698.21 2030.74 1693.74 2034.24 1689.28 2039.09 1682.42 2045.3 1673.16 2051.5 1663.9 2055.86 1657.29 2058.36 1653.32 2058.65 1652.49 2059.22 1651.79 2060.07 1651.21 2060.93 1650.63 2062.05 1650.26 2063.43 1650.09 2063.94 1649.93 2064.45 1649.85 2064.96 1649.87ZM1812.41 1638.19C1815.06 1638.19 1817.37 1638.69 1819.35 1639.68 1821.32 1640.67 1822.11 1641.99 1821.71 1643.65 1821.99 1644.31 1821.81 1645.55 1821.2 1647.37 1819.4 1652.66 1814.78 1659.68 1807.33 1668.45L1803.75 1673.16C1798.36 1680.27 1794.33 1685.81 1791.66 1689.77 1788.99 1693.74 1787.2 1697.05 1786.3 1699.69 1785.4 1702.34 1785.8 1704.07 1787.51 1704.9 1788.16 1705.4 1789.07 1705.65 1790.23 1705.65 1793.54 1705.65 1798.42 1703.08 1804.87 1697.96 1811.32 1692.83 1819.08 1684.23 1828.14 1672.17 1832.37 1666.54 1835.74 1660.76 1838.26 1654.81 1838.55 1652.99 1839.72 1651 1841.77 1648.85 1843.82 1646.7 1846.15 1644.97 1848.75 1643.65 1849.75 1642.65 1850.92 1641.87 1852.28 1641.29 1853.63 1640.71 1854.36 1640.75 1854.47 1641.41L1858.52 1641.17C1859.07 1641 1859.6 1641.74 1860.11 1643.4 1860.63 1645.05 1861.08 1646.04 1861.46 1646.37 1862.66 1647.7 1862.59 1650.34 1861.24 1654.31 1859.39 1659.77 1854.85 1667.29 1847.62 1676.88 1842.23 1683.49 1838.4 1688.57 1836.11 1692.13 1833.83 1695.68 1832.04 1699.11 1830.76 1702.42 1829.58 1705.89 1828.95 1708.58 1828.89 1710.48 1828.82 1712.38 1829.6 1714.33 1831.24 1716.31 1833.27 1718.13 1832.88 1722.43 1830.08 1729.21 1829.36 1730.36 1828.14 1731.27 1826.43 1731.93 1824.72 1732.59 1822.79 1732.93 1820.64 1732.93 1817 1732.93 1814.22 1732.1 1812.31 1730.45 1811.32 1728.96 1810.78 1727.01 1810.69 1724.62 1810.59 1722.22 1810.73 1718.54 1811.09 1713.58 1811.1 1712.59 1811.42 1711.14 1812.07 1709.24 1812.72 1707.34 1813.18 1705.98 1813.46 1705.15 1812.29 1706.64 1810.92 1708.25 1809.34 1709.99 1807.76 1711.72 1806.36 1712.92 1805.14 1713.58 1800.04 1717.38 1795.29 1720.19 1790.87 1722.01 1784.45 1725.32 1779.34 1726.97 1775.54 1726.97 1770.91 1726.97 1767.67 1724.82 1765.83 1720.53 1762 1716.23 1761.09 1711.1 1763.12 1705.15 1763.4 1704.32 1764.1 1702.75 1765.21 1700.44 1767.62 1694.32 1770.49 1688.45 1773.8 1682.83 1777.12 1677.21 1782.25 1670.02 1789.2 1661.25L1801.69 1646.37 1808.27 1638.69C1809.21 1638.35 1810.59 1638.19 1812.41 1638.19ZM2443.67 1632.49C2450.45 1632.49 2455.52 1633.73 2458.9 1636.21 2462.27 1638.69 2464.29 1641.5 2464.96 1644.64 2465.63 1647.78 2465.57 1650.51 2464.78 1652.82L2464.36 1654.06 2464.1 1654.81C2463.43 1656.79 2461.04 1660.43 2456.92 1665.72 2452.81 1671.01 2447.45 1675.97 2440.83 1680.6 2434.22 1685.23 2426.86 1687.79 2418.75 1688.29 2414.78 1688.29 2411.07 1687.91 2407.6 1687.17 2404.13 1686.43 2401.9 1686.05 2400.91 1686.05 2398.43 1686.05 2396.55 1686.96 2395.27 1688.78 2393.99 1690.6 2392.62 1693.66 2391.16 1697.96 2390.08 1702.59 2390.27 1705.81 2391.72 1707.63 2393.17 1709.45 2395.87 1710.36 2399.84 1710.36 2401.83 1710.36 2404.34 1709.78 2407.38 1708.62 2410.47 1707.3 2414.32 1705.23 2418.91 1702.42 2421.45 1700.77 2423.42 1699.61 2424.8 1698.95 2426.18 1698.29 2427.7 1697.96 2429.35 1697.96 2430.84 1697.96 2432.24 1698.95 2433.55 1700.93 2434.86 1702.92 2435.29 1704.82 2434.84 1706.64 2433.83 1708.62 2431 1711.6 2426.35 1715.57 2421.69 1719.53 2416.18 1723.09 2409.83 1726.23 2403.47 1729.37 2397.23 1730.94 2391.11 1730.94 2381.69 1730.94 2374.98 1728.3 2370.99 1723.01 2367 1717.71 2366.67 1710.19 2369.98 1700.44 2371.28 1696.63 2372.96 1692.42 2375.03 1687.79 2376.71 1683.82 2380.17 1678.37 2385.43 1671.42 2390.68 1664.48 2396.95 1657.7 2404.24 1651.09 2411.53 1644.47 2419.1 1639.59 2426.94 1636.45 2430.59 1634.97 2433.59 1633.93 2435.93 1633.35 2438.28 1632.77 2440.86 1632.49 2443.67 1632.49ZM1992.23 1631.99C1995.54 1631.99 1997.63 1632.65 1998.5 1633.97 1999.49 1634.97 1999.59 1636.62 1998.8 1638.93 1997.51 1642.74 1992.84 1649.43 1984.79 1659.02L1980.54 1664.23C1978.65 1666.38 1977.02 1668.36 1975.66 1670.18 1974.3 1672 1974.06 1672.83 1974.94 1672.66 1977.83 1669.52 1983.71 1665.22 1992.59 1659.77 2001.47 1654.31 2007.46 1650.92 2010.56 1649.6 2011.94 1648.94 2013.65 1648.27 2015.69 1647.61 2017.74 1646.95 2019.15 1646.46 2019.92 1646.13 2023.4 1644.64 2027.04 1643.89 2030.85 1643.89 2033.49 1643.89 2035.64 1644.27 2037.29 1645.01 2038.94 1645.75 2039.84 1646.87 2039.99 1648.36 2039.77 1649.51 2039.91 1650.42 2040.43 1651.09 2040.95 1651.75 2041.35 1652.16 2041.62 1652.33 2042.12 1652.33 2042.38 1652.53 2042.4 1652.95 2042.43 1653.36 2042.41 1653.65 2042.35 1653.81 2041.9 1655.14 2040.17 1656.83 2037.16 1658.9 2034.14 1660.96 2031.36 1662.08 2028.83 1662.25 2026.95 1662.41 2024.91 1662.82 2022.7 1663.49 2020.49 1664.15 2018.23 1664.97 2015.91 1665.97L2008.19 1669.69C2001.62 1672.5 1995.92 1675.27 1991.11 1677.99 1986.3 1680.72 1981.18 1684.23 1975.75 1688.53 1974.64 1689.36 1973.05 1690.52 1970.97 1692.01 1968.9 1693.49 1966.94 1695.23 1965.11 1697.21 1963.56 1698.37 1961.34 1701.39 1958.44 1706.27 1955.54 1711.14 1953.9 1714.16 1953.5 1715.32 1953.17 1715.81 1952.5 1716.81 1951.5 1718.29 1950.5 1719.78 1949.3 1721.1 1947.92 1722.26 1945.81 1724.08 1944.12 1725.4 1942.85 1726.23 1941.58 1727.06 1940.36 1727.47 1939.21 1727.47 1937.55 1727.47 1936.02 1726.39 1934.59 1724.25 1932.9 1722.43 1931.67 1720.69 1930.91 1719.04 1930.15 1717.38 1930.52 1715.07 1932.03 1712.09 1934.44 1706.47 1937.9 1699.94 1942.41 1692.5L1945.33 1687.54C1947.35 1683.08 1952.94 1674.27 1962.12 1661.13 1971.3 1647.99 1978.25 1639.1 1982.96 1634.47 1985.18 1632.82 1988.27 1631.99 1992.23 1631.99ZM2245.93 1631.74C2253.53 1631.74 2254.58 1639.84 2249.08 1656.05 2248.01 1659.19 2247.11 1661.58 2246.39 1663.24 2243.36 1671.17 2241.28 1676.79 2240.16 1680.1 2235.83 1692.83 2234.76 1701.1 2236.94 1704.9 2239.61 1701.43 2241.69 1698.95 2243.18 1697.46 2247.13 1692.67 2249.49 1689.61 2250.27 1688.29 2251 1687.13 2252.55 1685.23 2254.94 1682.58L2260.44 1675.89C2261.11 1674.89 2263.26 1671.71 2266.91 1666.34 2270.55 1660.96 2273.85 1656.62 2276.79 1653.32 2277.9 1651.99 2279.55 1650.05 2281.74 1647.49 2283.94 1644.93 2285.65 1643.07 2286.87 1641.91 2288.09 1640.75 2289.25 1640.01 2290.35 1639.68 2292.07 1638.52 2293.67 1637.94 2295.16 1637.94 2296.64 1637.94 2298.05 1638.44 2299.36 1639.43 2300.73 1641.74 2301.64 1643.69 2302.09 1645.26 2302.55 1646.83 2302.42 1648.69 2301.69 1650.84 2300.51 1654.31 2297.78 1658.44 2293.51 1663.24 2290.89 1667.04 2288.24 1670.59 2285.54 1673.9 2282.85 1677.21 2280.92 1679.36 2279.75 1680.35L2269.58 1693.49C2265.25 1698.95 2260.03 1705.31 2253.92 1712.59 2246.31 1721.85 2240.83 1728.71 2237.5 1733.17L2232.5 1738.38C2219.74 1751.61 2210.23 1760.87 2203.97 1766.16 2199.2 1769.46 2193.74 1772.89 2187.57 1776.45 2181.4 1780 2176.75 1782.03 2173.6 1782.53 2170.24 1783.19 2166.65 1783.52 2162.85 1783.52 2156.07 1783.52 2150.43 1782.36 2145.93 1780.05 2141.42 1777.73 2139.32 1774.92 2139.62 1771.61L2140.13 1768.64C2141.09 1765.83 2142.95 1763.64 2145.71 1762.07 2148.48 1760.49 2151.19 1759.71 2153.83 1759.71 2155.48 1759.71 2156.58 1760.12 2157.13 1760.95 2157.4 1761.11 2158.42 1762.02 2160.17 1763.68 2161.92 1765.33 2164.78 1766.16 2168.75 1766.16 2176.19 1766.16 2185.12 1761.28 2195.55 1751.53 2206.26 1740.45 2214.55 1731.6 2220.44 1724.99 2217.81 1723.01 2215.72 1719.66 2214.18 1714.95 2212.64 1710.23 2212.34 1706.97 2213.29 1705.15L2214.22 1702.42C2212.9 1702.42 2212.79 1699.94 2213.9 1694.98 2215 1690.02 2216.79 1683.9 2219.26 1676.63 2221.96 1668.69 2224.01 1663.15 2225.41 1660.01 2226.97 1657.37 2228.45 1654.1 2229.85 1650.22 2231.26 1646.33 2232.16 1643.81 2232.55 1642.65 2233.17 1640.34 2234.31 1638.31 2235.98 1636.58 2237.64 1634.84 2239.08 1633.64 2240.3 1632.98 2242.73 1632.15 2244.61 1631.74 2245.93 1631.74ZM2100.16 1594.54C2102.31 1594.54 2104.42 1595.29 2106.47 1596.77 2108.53 1598.26 2109.88 1600 2110.53 1601.98 2110.79 1604.63 2110.58 1606.94 2109.91 1608.93 2108.56 1612.89 2105.17 1617.27 2099.73 1622.07 2097.35 1624.22 2094.81 1625.87 2092.1 1627.03 2089.39 1628.19 2086.88 1628.77 2084.56 1628.77 2082.25 1628.77 2080.52 1628.27 2079.37 1627.28 2078.11 1626.12 2077.29 1624.63 2076.91 1622.81 2076.54 1620.99 2076.55 1619.26 2076.95 1617.61 2077.34 1615.95 2077.85 1614.96 2078.46 1614.63 2079.84 1613.47 2081.37 1611.9 2083.03 1609.92 2084.7 1607.93 2085.92 1606.53 2086.7 1605.7 2089.03 1602.73 2090.84 1600.58 2092.11 1599.25 2094.06 1596.94 2095.55 1595.7 2096.6 1595.53 2098.15 1594.87 2099.34 1594.54 2100.16 1594.54ZM2379.87 1592.06C2382.84 1592.06 2384.96 1592.89 2386.22 1594.54 2386.92 1596.86 2387.07 1598.59 2386.68 1599.75 2386.23 1601.07 2384.98 1602.81 2382.93 1604.96 2381.26 1606.94 2378.71 1609.59 2375.27 1612.89 2372.28 1615.87 2369.97 1618.27 2368.36 1620.09 2365.98 1622.23 2364.59 1623.89 2364.19 1625.05 2363.8 1626.2 2364.68 1626.78 2366.83 1626.78 2369.14 1626.78 2373.2 1626.29 2378.99 1625.29 2379.87 1625.13 2381.06 1625.05 2382.55 1625.05 2386.51 1625.05 2388.93 1626.2 2389.8 1628.52 2390.67 1630.83 2390.51 1633.73 2389.33 1637.2 2388.54 1639.51 2387.28 1640.92 2385.54 1641.41 2383.8 1641.91 2380.21 1642.16 2374.75 1642.16 2369.18 1642.98 2363.58 1643.4 2357.96 1643.4 2356.97 1643.4 2355.84 1643.44 2354.57 1643.52 2353.3 1643.6 2351.95 1643.81 2350.52 1644.14 2349.08 1644.47 2347.96 1644.97 2347.16 1645.63 2346.35 1646.29 2345.37 1647.37 2344.2 1648.85 2343.54 1649.35 2341.73 1651.25 2338.79 1654.56 2334.85 1659.35 2332.37 1662.25 2331.38 1663.24 2322.81 1675.8 2315.09 1688.78 2308.22 1702.17 2307.72 1703.17 2307.22 1704.41 2306.71 1705.89 2305.98 1708.04 2306.16 1709.57 2307.26 1710.48 2308.36 1711.39 2310.97 1711.85 2315.11 1711.85 2319.74 1711.85 2324.31 1711.27 2328.84 1710.11 2334.53 1707.96 2338.87 1706.14 2341.86 1704.65 2343.62 1703.83 2345.25 1703.04 2346.75 1702.3 2348.24 1701.55 2349.29 1701.02 2349.9 1700.69 2351.01 1699.36 2352.07 1699.53 2353.08 1701.18 2354.09 1702.83 2354.64 1704.74 2354.74 1706.89 2353.72 1709.86 2352.23 1712.55 2350.26 1714.95 2348.29 1717.34 2344.54 1719.86 2339.01 1722.51 2332.6 1725.82 2326.33 1728.21 2320.2 1729.7 2314.07 1731.19 2308.53 1731.93 2303.57 1731.93 2300.76 1731.93 2298.28 1731.69 2296.13 1731.19 2293.66 1730.69 2291.4 1728.59 2289.35 1724.87 2287.31 1721.15 2286.32 1717.96 2286.4 1715.32 2286.51 1714.99 2286.47 1714.61 2286.28 1714.2 2286.09 1713.79 2285.94 1713.5 2285.83 1713.33 2285.34 1712.84 2285.94 1710.11 2287.62 1705.15 2288.97 1701.18 2290.58 1697.05 2292.45 1692.75 2294.33 1688.45 2296.05 1684.98 2297.61 1682.33L2306.54 1669.19 2313.38 1659.27 2324.96 1644.89 2315.97 1642.16C2314.87 1641.99 2314.12 1641.41 2313.71 1640.42 2313.3 1639.43 2313.24 1638.52 2313.52 1637.69 2313.97 1636.37 2315.32 1634.47 2317.57 1631.99 2319.82 1629.51 2321.36 1628.27 2322.18 1628.27 2322.62 1628.43 2323.92 1628.52 2326.06 1628.52 2331.02 1628.52 2334.83 1628.27 2337.48 1627.77 2339.35 1627.11 2340.96 1625.79 2342.3 1623.81 2343.74 1621.99 2345.09 1620.46 2346.34 1619.22 2347.59 1617.98 2348.88 1616.61 2350.21 1615.13 2351.04 1614.13 2352.35 1612.6 2354.12 1610.54 2355.9 1608.47 2358.07 1606.11 2360.62 1603.47 2361.12 1602.97 2362.27 1601.77 2364.07 1599.87 2365.87 1597.97 2367.83 1596.36 2369.93 1595.04 2371.2 1594.21 2372.76 1593.51 2374.61 1592.93 2376.46 1592.35 2378.22 1592.06 2379.87 1592.06ZM1946.87 1592.06C1949.85 1592.06 1951.96 1592.89 1953.22 1594.54 1953.92 1596.86 1954.07 1598.59 1953.68 1599.75 1953.23 1601.07 1951.98 1602.81 1949.93 1604.96 1948.26 1606.94 1945.71 1609.59 1942.27 1612.89 1939.28 1615.87 1936.97 1618.27 1935.36 1620.09 1932.98 1622.23 1931.59 1623.89 1931.19 1625.05 1930.8 1626.2 1931.68 1626.78 1933.83 1626.78 1936.14 1626.78 1940.2 1626.29 1945.99 1625.29 1946.87 1625.13 1948.06 1625.05 1949.55 1625.05 1953.51 1625.05 1955.93 1626.2 1956.8 1628.52 1957.67 1630.83 1957.51 1633.73 1956.33 1637.2 1955.54 1639.51 1954.28 1640.92 1952.54 1641.41 1950.8 1641.91 1947.21 1642.16 1941.75 1642.16 1936.18 1642.98 1930.58 1643.4 1924.96 1643.4 1923.97 1643.4 1922.84 1643.44 1921.57 1643.52 1920.3 1643.6 1918.95 1643.81 1917.52 1644.14 1916.08 1644.47 1914.96 1644.97 1914.16 1645.63 1913.35 1646.29 1912.37 1647.37 1911.2 1648.85 1910.54 1649.35 1908.73 1651.25 1905.79 1654.56 1901.85 1659.35 1899.37 1662.25 1898.38 1663.24 1889.81 1675.8 1882.09 1688.78 1875.22 1702.17 1874.72 1703.17 1874.22 1704.41 1873.71 1705.89 1872.98 1708.04 1873.16 1709.57 1874.26 1710.48 1875.36 1711.39 1877.97 1711.85 1882.11 1711.85 1886.74 1711.85 1891.31 1711.27 1895.84 1710.11 1901.53 1707.96 1905.87 1706.14 1908.86 1704.65 1910.62 1703.83 1912.25 1703.04 1913.75 1702.3 1915.24 1701.55 1916.29 1701.02 1916.9 1700.69 1918.01 1699.36 1919.07 1699.53 1920.08 1701.18 1921.09 1702.83 1921.64 1704.74 1921.74 1706.89 1920.72 1709.86 1919.23 1712.55 1917.26 1714.95 1915.29 1717.34 1911.54 1719.86 1906.01 1722.51 1899.6 1725.82 1893.33 1728.21 1887.2 1729.7 1881.07 1731.19 1875.53 1731.93 1870.57 1731.93 1867.76 1731.93 1865.28 1731.69 1863.13 1731.19 1860.66 1730.69 1858.4 1728.59 1856.35 1724.87 1854.31 1721.15 1853.32 1717.96 1853.4 1715.32 1853.51 1714.99 1853.47 1714.61 1853.28 1714.2 1853.09 1713.79 1852.94 1713.5 1852.83 1713.33 1852.34 1712.84 1852.94 1710.11 1854.62 1705.15 1855.97 1701.18 1857.58 1697.05 1859.45 1692.75 1861.33 1688.45 1863.05 1684.98 1864.61 1682.33L1873.54 1669.19 1880.38 1659.27 1891.96 1644.89 1882.97 1642.16C1881.87 1641.99 1881.12 1641.41 1880.71 1640.42 1880.3 1639.43 1880.24 1638.52 1880.52 1637.69 1880.97 1636.37 1882.32 1634.47 1884.57 1631.99 1886.82 1629.51 1888.36 1628.27 1889.18 1628.27 1889.62 1628.43 1890.92 1628.52 1893.06 1628.52 1898.02 1628.52 1901.83 1628.27 1904.48 1627.77 1906.35 1627.11 1907.96 1625.79 1909.3 1623.81 1910.74 1621.99 1912.09 1620.46 1913.34 1619.22 1914.59 1617.98 1915.88 1616.61 1917.21 1615.13 1918.04 1614.13 1919.35 1612.6 1921.12 1610.54 1922.9 1608.47 1925.07 1606.11 1927.62 1603.47 1928.12 1602.97 1929.27 1601.77 1931.07 1599.87 1932.87 1597.97 1934.83 1596.36 1936.93 1595.04 1938.2 1594.21 1939.76 1593.51 1941.61 1592.93 1943.46 1592.35 1945.22 1592.06 1946.87 1592.06ZM2197.84 1583.38C2194.7 1583.38 2191.94 1583.71 2189.57 1584.37 2187.03 1585.03 2185.07 1585.82 2183.68 1586.73 2182.3 1587.64 2181.3 1589 2180.68 1590.82 2180.23 1592.14 2179.33 1593.59 2177.97 1595.16 2176.61 1596.73 2175.26 1598.01 2173.93 1599.01 2173.43 1600 2172.64 1600.99 2171.56 1601.98 2170.48 1602.97 2169.72 1603.63 2169.27 1603.97 2169.16 1604.3 2167.29 1606.53 2163.65 1610.66 2160.01 1614.79 2156.33 1619.42 2152.61 1624.55 2143.66 1636.29 2138.76 1643.4 2137.92 1645.88 2139.68 1645.55 2143.23 1644.84 2148.55 1643.77 2153.88 1642.69 2157.76 1641.74 2160.18 1640.92 2160.57 1640.75 2161.79 1640.21 2163.83 1639.31 2165.88 1638.4 2168.12 1637.03 2170.56 1635.21 2184.29 1625.46 2194.54 1616.7 2201.31 1608.93 2207.75 1602.15 2211.45 1597.35 2212.4 1594.54 2213.08 1592.56 2212.81 1590.66 2211.61 1588.84 2209.71 1585.2 2205.12 1583.38 2197.84 1583.38ZM2201.85 1563.29C2203.32 1563.29 2204.81 1563.38 2206.32 1563.54 2217.72 1564.53 2225.84 1567.88 2230.68 1573.59 2235.52 1579.29 2235.98 1587.68 2232.05 1598.76 2230.26 1603.06 2225.87 1608.93 2218.87 1616.37 2211.88 1623.81 2204.93 1629.92 2198 1634.72 2194.57 1637.03 2190.73 1639.47 2186.47 1642.03 2182.21 1644.6 2179.47 1646.21 2178.25 1646.87L2183.69 1649.1C2190.45 1652.08 2195.25 1655.71 2198.09 1660.01 2200.93 1664.31 2201.99 1670.18 2201.28 1677.62 2201.05 1679.27 2200.71 1680.76 2200.26 1682.09 2199.02 1685.72 2197 1689.86 2194.18 1694.49 2191.37 1699.11 2188.63 1703.17 2185.97 1706.64 2184.63 1707.63 2183.44 1708.7 2182.39 1709.86 2181.33 1711.02 2180.67 1711.76 2180.39 1712.09 2180 1712.75 2177.65 1715.28 2173.35 1719.66 2169.05 1724.04 2165.38 1727.55 2162.33 1730.2 2148.27 1739.46 2137.24 1745.41 2129.23 1748.05 2121.22 1751.19 2112.42 1752.77 2102.83 1752.77 2094.23 1752.77 2088.32 1751.44 2085.08 1748.8 2081.68 1746.15 2079.4 1743.38 2078.23 1740.49 2077.07 1737.6 2076.93 1734.83 2077.83 1732.18 2079.01 1728.71 2081.71 1725.9 2085.91 1723.75 2086.68 1723.42 2087.65 1723.25 2088.8 1723.25 2090.46 1723.25 2092.14 1723.54 2093.84 1724.12 2095.55 1724.7 2096.73 1725.49 2097.38 1726.48 2100.33 1730.45 2104.78 1732.43 2110.73 1732.43 2113.38 1732.43 2117.38 1731.85 2122.73 1730.69 2129.85 1728.71 2135.78 1726.23 2140.51 1723.25 2145.24 1720.28 2151.24 1715.65 2158.5 1709.37 2163.05 1705.23 2166.82 1701.06 2169.82 1696.84 2172.83 1692.63 2174.92 1688.78 2176.1 1685.31 2177.39 1681.51 2177.49 1678.53 2176.41 1676.38 2174.62 1671.92 2172.07 1668.57 2168.78 1666.34 2165.49 1664.11 2161.12 1662.99 2155.66 1662.99 2150.87 1662.99 2145.93 1663.65 2140.85 1664.97L2125.46 1667.95C2124.74 1668.11 2123.83 1668.24 2122.73 1668.32 2121.62 1668.4 2119.26 1670.84 2115.65 1675.64 2112.04 1680.43 2105.56 1689.53 2096.21 1702.92 2089.43 1712.67 2084.16 1719.66 2080.41 1723.87 2076.66 1728.09 2073.88 1730.2 2072.06 1730.2 2070.08 1730.2 2068.54 1728.38 2067.47 1724.74 2067.25 1723.91 2066.78 1722.26 2066.05 1719.78 2065.32 1717.3 2065.35 1714.9 2066.14 1712.59 2066.53 1711.43 2067.43 1710.03 2068.81 1708.37 2070.15 1706.89 2071.35 1705.4 2072.44 1703.91 2073.52 1702.42 2074.85 1700.35 2076.41 1697.71 2080.75 1691.26 2092.44 1675.22 2111.48 1649.6 2130.52 1623.97 2145.16 1604.63 2155.38 1591.57 2162.72 1582.14 2165.64 1577.18 2164.16 1576.69 2164.33 1576.19 2164.33 1575.45 2164.17 1574.45 2164.02 1573.46 2164.1 1572.72 2164.44 1572.22 2164.77 1571.23 2168.21 1569.74 2174.76 1567.76 2181.3 1565.77 2185.59 1564.95 2187.63 1565.28L2189.12 1565.28C2191.26 1565.28 2192.48 1564.86 2192.76 1564.04 2193.09 1564.04 2194.68 1563.87 2197.52 1563.54 2198.94 1563.38 2200.38 1563.29 2201.85 1563.29ZM1817.07 1547.92C1819.71 1547.92 1821.9 1548.79 1823.62 1550.52 1825.34 1552.26 1826.06 1554.28 1825.77 1556.6 1825.09 1560.07 1818.47 1572.72 1805.93 1594.54 1805.26 1596.53 1802.08 1602.48 1796.39 1612.4 1792.99 1618.02 1790.01 1623.39 1787.44 1628.52 1785.15 1633.31 1782.96 1637.45 1780.87 1640.92 1778.78 1644.39 1777.43 1646.04 1776.83 1645.88 1760.16 1674.98 1742.43 1701.59 1723.65 1725.73 1719.2 1731.52 1714.69 1736.03 1710.13 1739.25 1705.56 1742.47 1701.37 1744.09 1697.57 1744.09 1692.94 1744.09 1689.54 1741.69 1687.37 1736.89 1684.6 1730.45 1683.2 1723.87 1683.16 1717.18 1683.12 1710.48 1684.49 1700.85 1687.27 1688.29 1690.53 1669.93 1695.34 1651.42 1701.69 1632.73L1704.38 1624.8C1708.48 1613.22 1709.71 1607.44 1708.05 1607.44 1707.06 1607.44 1705.4 1608.93 1703.06 1611.9 1700.73 1614.88 1697.59 1619.26 1693.63 1625.05 1691.91 1627.69 1684.87 1637.45 1672.53 1654.31L1664.61 1665.22C1659.61 1671.17 1655.33 1677.21 1651.76 1683.33 1642.14 1696.55 1634.14 1708.29 1627.76 1718.54 1621.38 1728.79 1617.81 1734.58 1617.03 1735.9 1615.91 1737.72 1614.87 1739.46 1613.89 1741.11 1612.92 1742.76 1611.96 1744.25 1611.01 1745.57 1608.51 1749.05 1606.63 1751.4 1605.39 1752.64 1604.14 1753.88 1602.85 1754.5 1601.53 1754.5 1599.88 1754.5 1598.01 1753.67 1595.92 1752.02 1591.42 1749.21 1590.21 1744.75 1592.29 1738.63 1593.19 1735.98 1594.95 1732.51 1597.57 1728.21 1601.02 1722.43 1604.89 1716.89 1609.17 1711.6 1611.56 1708.46 1614.06 1704.98 1616.67 1701.18 1619.29 1697.38 1621.77 1693.25 1624.11 1688.78 1630 1681.18 1635.45 1673.78 1640.46 1666.59 1645.46 1659.39 1648.64 1654.81 1649.97 1652.82 1650.53 1651.66 1655.4 1645.38 1664.56 1633.97L1671.81 1625.05C1679.55 1613.97 1686.26 1605.04 1691.95 1598.26 1697.64 1591.48 1704.37 1584.21 1712.14 1576.44 1716.25 1572.14 1720.94 1569.99 1726.24 1569.99 1729.38 1569.99 1731.93 1570.73 1733.91 1572.22 1735.88 1573.71 1736.83 1575.78 1736.76 1578.42 1737.07 1581.89 1736.89 1585.7 1736.23 1589.83 1735.57 1593.96 1733.61 1601.32 1730.34 1611.9 1729.38 1615.21 1727.84 1620 1725.7 1626.29 1721.32 1640.17 1718.15 1650.71 1716.2 1657.91 1714.25 1665.1 1713.09 1671.67 1712.72 1677.62 1711.46 1684.23 1710.55 1688.62 1709.99 1690.77 1708.34 1698.54 1707.2 1704.57 1706.56 1708.87 1705.93 1713.17 1706.03 1715.32 1706.85 1715.32 1708.84 1715.32 1713.18 1710.69 1719.88 1701.43 1726.58 1692.17 1738.4 1673.07 1755.35 1644.14 1757.46 1640.83 1760.25 1636.04 1763.71 1629.76 1767.17 1623.47 1770.24 1617.36 1772.92 1611.41 1777.04 1604.63 1781.22 1597.56 1785.46 1590.2 1789.69 1582.84 1791.92 1578.83 1792.15 1578.17 1792.43 1577.35 1792.75 1576.52 1793.12 1575.69 1793.48 1574.87 1793.78 1573.87 1794.01 1572.72 1794.67 1572.72 1795.73 1571.64 1797.21 1569.49 1798.68 1567.34 1799.73 1565.36 1800.34 1563.54 1801.97 1558.75 1804.34 1555.19 1807.44 1552.88 1810.39 1549.57 1813.59 1547.92 1817.07 1547.92Z" stroke="#FFFFFF" stroke-width="3" stroke-linejoin="round" stroke-miterlimit="10" fill="#A02B93" fill-rule="evenodd"/><text fill="#000000" fill-opacity="0" font-family="Arial,Arial_MSFontService,sans-serif" font-size="235.6" x="1591.31" y="1754.07">NutriByte</text></g></svg>